<?xml version="1.0" encoding="UTF-8"?>
<svg width="96px" height="96px" viewBox="0 0 96 96" version="1.1" xmlns="http://www.w3.org/2000/svg" xmlns:xlink="http://www.w3.org/1999/xlink">
    <path d="M73.6616099,23.9033667 C71.1991156,21.1814741 67.6723402,19.682566 63.7317347,19.682566 C58.2136577,19.682566 52.5132496,22.4646224 48.0922323,27.3171429 L48.0410157,27.3731574 L47.9887748,27.3192175 C43.0299832,22.2768699 37.4483976,19.5 32.2724476,19.5 C28.3851073,19.5 24.9505218,21.0217288 22.341548,23.9002548 C18.2124654,28.4529936 16.7323055,33.8075705 17.9440904,39.8146133 C18.226806,41.2222384 18.6713661,42.68899 19.2654787,44.1733758 C21.215807,49.0445678 24.781507,54.1460419 29.8601455,59.3367243 L48.0000425,76.5 L65.928927,59.5773794 L65.9709246,59.5141037 C71.144826,54.2559964 74.7627669,49.0985077 76.7346062,44.1744131 C77.3287188,42.6900273 77.7743032,41.2222384 78.0580432,39.8115014 C79.2657308,33.8044586 77.7855709,28.4519563 73.6616099,23.9033667 L73.6616099,23.9033667 Z M72.5010417,38.6663148 C71.7379142,42.4576706 69.0111422,48.7209281 60.3452928,57.0224932 C59.6999636,57.6396906 48.1639356,68.2181438 48.0481861,68.3260237 L48.0000425,68.3695905 L47.9518988,68.3260237 C47.835125,68.2191811 36.3318757,57.6635487 35.6619625,57.0224932 C26.99304,48.7198908 24.263195,42.4576706 23.5010919,38.6673521 C22.6621639,34.5087898 23.6485957,30.9487534 26.5187743,27.7839308 C28.0460534,26.0983076 29.9830654,25.2435669 32.2724476,25.2435669 C36.628932,25.2435669 41.6256239,28.2963603 45.9831326,33.619818 C46.5506126,34.3117015 47.3926135,34.6872066 48.2786608,34.6571247 C49.1565134,34.6218562 49.982125,34.1664786 50.4871208,33.4393267 C53.8663923,28.5712466 59.065902,25.4261328 63.7317347,25.4261328 C65.3809093,25.4261328 67.7184351,25.8348317 69.4813107,27.7849682 C72.3484162,30.9466788 73.3358723,34.5067152 72.5010417,38.6663148 L72.5010417,38.6663148 Z"></path>
</svg>
